<?xml version="1.0" encoding="utf-8"?>

<!DOCTYPE svg PUBLIC "-//W3C//DTD SVG 1.1//EN" "http://www.w3.org/Graphics/SVG/1.1/DTD/svg11.dtd">
<svg version="1.1" id="Layer_1" xmlns="http://www.w3.org/2000/svg" xmlns:xlink="http://www.w3.org/1999/xlink" x="0px" y="0px"
	 viewBox="0 0 1628.2131 1628.2133" enable-background="new 0 0 1628.2131 1628.2133" xml:space="preserve">
<g>
	<path fill="none" d="M596.7142,160.7899C173.6548,290.2997-48.042,855.9383,289.9995,1260.338
		c420.4292,489.7791,1221.2828,190.7568,1212.2222-464.8441C1484.1918,325.1951,1033.8436,19.0135,596.7142,160.7899z"/>
	<path fill="#FF0000" d="M566.8589,53.1207C39.7311,224.3994-165.2443,873.8925,195.247,1321.0676
		c270.4659,336.0054,776.1304,392.6375,1117.141,118.8907c181.9124-146.5498,298.0671-359.842,301.7185-625.8517
		C1606.2522,241.8886,1062.0343-107.5121,566.8589,53.1207z M578.3499,1539.7019
		C74.5131,1376.0612-118.8656,756.4269,224.0186,330.7406C482.7639,9.0112,965.6519-42.5314,1289.1943,217.3507
		c173.8042,139.9948,284.2201,343.7134,287.703,596.7559C1569.4053,1358.4357,1051.6317,1693.3434,578.3499,1539.7019z"/>
	<path fill="#FFFFFF" d="M573.2291,90.1742C103.1775,235.2895-141.0786,861.4994,233.3615,1308.6107
		c464.4053,541.3923,1353.265,212.8438,1343.2527-515.0889C1556.7332,268.8281,1053.9532-65.9438,573.2291,90.1742z
		 M589.841,1504.3115c-479.558-155.636-663.0131-744.9294-337.0508-1149.9758
		c415.769-517.502,1277.3027-236.9754,1286.8978,459.7709C1532.5394,1333.1968,1038.7858,1650.0875,589.841,1504.3115z"/>
	<path fill="#0000FF" d="M584.9715,125.4821c-445.962,137.1397-679.9177,732.7785-323.291,1158.9923
		c440.4741,513.3043,1287.3086,204.0648,1277.7373-489.9664C1520.4506,296.443,1043.4698-23.3237,584.9715,125.4821z
		 M601.3321,1468.921C146.4751,1321.3812-27.7366,762.6707,281.5617,377.9308
		c392.1101-488.5739,1211.7593-227.5513,1220.917,436.1759C1495.6967,1305.6526,1027.9818,1607.5596,601.3321,1468.921z"/>
</g>
</svg>
